<svg xmlns="http://www.w3.org/2000/svg" width="29.448" height="29.475" viewBox="0 0 29.448 29.475">
  <path id="bank" d="M27.63,7.39H1.864A1.756,1.756,0,0,1,.555,6.844,1.808,1.808,0,0,1,.023,5.536,1.759,1.759,0,0,1,.555,4.242,1.783,1.783,0,0,1,1.864,3.71L14.747,0,27.631,3.71a1.817,1.817,0,0,1,1.841,1.826,1.81,1.81,0,0,1-.532,1.308,1.752,1.752,0,0,1-1.308.546ZM3.7,23.954A1.756,1.756,0,0,1,2.4,23.408a1.791,1.791,0,0,1-.532-1.294V11.072A1.818,1.818,0,0,1,3.7,9.231H7.385a1.818,1.818,0,0,1,1.841,1.841V22.115a1.865,1.865,0,0,1-1.84,1.84H3.705Zm9.2,0a1.756,1.756,0,0,1-1.308-.546,1.791,1.791,0,0,1-.532-1.294V11.072a1.756,1.756,0,0,1,.546-1.308,1.791,1.791,0,0,1,1.294-.532h3.681a1.818,1.818,0,0,1,1.841,1.841V22.115a1.791,1.791,0,0,1-.532,1.294,1.756,1.756,0,0,1-1.308.546H12.906Zm9.2,0a1.865,1.865,0,0,1-1.84-1.84V11.072a1.756,1.756,0,0,1,.546-1.308,1.791,1.791,0,0,1,1.294-.532H25.79a1.818,1.818,0,0,1,1.841,1.841V22.115a1.791,1.791,0,0,1-.532,1.294,1.756,1.756,0,0,1-1.308.546H22.109ZM1.864,25.795H27.63a1.817,1.817,0,0,1,1.841,1.826,1.81,1.81,0,0,1-.532,1.308,1.752,1.752,0,0,1-1.308.546H1.864a1.756,1.756,0,0,1-1.308-.546,1.808,1.808,0,0,1-.532-1.308,1.759,1.759,0,0,1,.532-1.294A1.783,1.783,0,0,1,1.864,25.795Z" transform="translate(-0.023)" fill="#fff"/>
</svg>
