<svg xmlns="http://www.w3.org/2000/svg" width="36.012" height="28.103" viewBox="0 0 36.012 28.103">
  <path id="Icon_awesome-tshirt" data-name="Icon awesome-tshirt" d="M35.512,5.3,24.557,0C23.427,1.526,20.923,2.591,18,2.591S12.579,1.526,11.448,0L.494,5.3a.875.875,0,0,0-.405,1.18l3.218,6.285a.918.918,0,0,0,1.21.4L7.7,11.636A.9.9,0,0,1,9,12.427v13.92A1.777,1.777,0,0,0,10.8,28.1H25.2A1.777,1.777,0,0,0,27,26.347V12.421a.9.9,0,0,1,1.294-.79l3.184,1.52a.908.908,0,0,0,1.21-.4l3.224-6.279a.866.866,0,0,0-.4-1.18Z" transform="translate(0.004)" fill="#fff"/>
</svg>
