<svg xmlns="http://www.w3.org/2000/svg" width="31.558" height="24.752" viewBox="0 0 31.558 24.752">
  <g id="cut-sharp" transform="translate(-2.192 -5.602)">
    <path id="Trace_6" data-name="Trace 6" d="M33.75,9H30.375L16.387,13.954l-4.158-2.221a5.074,5.074,0,1,0-1.806,2.916l3.67,2.23-.593,2.6-3.068,1.882a5.044,5.044,0,1,0,1.743,2.672L33.75,11.25ZM7.276,13.5a2.813,2.813,0,1,1,2.813-2.813A2.813,2.813,0,0,1,7.276,13.5Zm0,14.625a2.813,2.813,0,1,1,2.813-2.813,2.813,2.813,0,0,1-2.813,2.813ZM17.964,18a1.125,1.125,0,1,1,1.125-1.125A1.125,1.125,0,0,1,17.964,18Z" fill="#fff"/>
    <path id="Trace_7" data-name="Trace 7" d="M24.173,18.272,18.285,21.66l12.09,4.215h3.374v-2.25Z" fill="#fff"/>
  </g>
</svg>
