<svg xmlns="http://www.w3.org/2000/svg" width="26.891" height="24.026" viewBox="0 0 26.891 24.026">
  <path id="Icon_awesome-shopping-basket" data-name="Icon awesome-shopping-basket" d="M26.891,12.118v.858a1.212,1.212,0,0,1-1.12,1.287H25.4l-1.219,9.8a2.367,2.367,0,0,1-2.218,2.21H4.931a2.367,2.367,0,0,1-2.218-2.21l-1.219-9.8H1.12A1.212,1.212,0,0,1,0,12.976v-.858a1.212,1.212,0,0,1,1.12-1.287H4.264L9.249,2.957a1.373,1.373,0,0,1,2.087-.379,1.887,1.887,0,0,1,.33,2.4L7.959,10.831H18.932L15.225,4.975a1.887,1.887,0,0,1,.33-2.4,1.373,1.373,0,0,1,2.087.379l4.985,7.874H25.77A1.212,1.212,0,0,1,26.891,12.118ZM14.566,21.557V15.55a1.212,1.212,0,0,0-1.12-1.287,1.212,1.212,0,0,0-1.12,1.287v6.007a1.212,1.212,0,0,0,1.12,1.287A1.212,1.212,0,0,0,14.566,21.557Zm5.229,0V15.55a1.131,1.131,0,1,0-2.241,0v6.007a1.131,1.131,0,1,0,2.241,0Zm-10.458,0V15.55a1.212,1.212,0,0,0-1.12-1.287A1.212,1.212,0,0,0,7.1,15.55v6.007a1.212,1.212,0,0,0,1.12,1.287A1.212,1.212,0,0,0,9.337,21.557Z" transform="translate(0 -2.25)" fill="#fff"/>
</svg>