<svg xmlns="http://www.w3.org/2000/svg" width="27.5" height="27.5" viewBox="0 0 27.5 27.5">
  <path id="Icon_awesome-parking" data-name="Icon awesome-parking" d="M24.554,2.25H2.946A2.947,2.947,0,0,0,0,5.2V26.8A2.947,2.947,0,0,0,2.946,29.75H24.554A2.947,2.947,0,0,0,27.5,26.8V5.2A2.947,2.947,0,0,0,24.554,2.25ZM14.732,19.929H11.786v2.946a.985.985,0,0,1-.982.982H8.839a.985.985,0,0,1-.982-.982V9.125a.985.985,0,0,1,.982-.982h5.893a5.893,5.893,0,0,1,0,11.786Zm0-7.857H11.786V16h2.946a1.964,1.964,0,0,0,0-3.929Z" transform="translate(0 -2.25)" fill="#fff"/>
</svg>
