<svg xmlns="http://www.w3.org/2000/svg" width="27.934" height="22.135" viewBox="0 0 27.934 22.135">
  <g id="Tracé_2" data-name="Tracé 2" transform="translate(0 11.86)" fill="#fff">
    <path d="M0-5.71a12.979,12.979,0,0,1,7.121-.775c4.395.6,5.255,2.392,10.458,3.189A20.317,20.317,0,0,0,27.934-4.938V1.838s-6.42,1.714-11.623,1.14S11.2.966,7.121.681A15.622,15.622,0,0,0,0,1.838Z" stroke="none"/>
    <path d="M 4.921350479125977 -6.637980461120605 C 5.596977233886719 -6.637980461120605 6.331892013549805 -6.593567848205566 7.121301651000977 -6.48517894744873 C 11.51602935791016 -5.881778717041016 12.37581539154053 -4.093650341033936 17.57891464233398 -3.296464443206787 C 22.78200149536133 -2.499293327331543 27.93365859985352 -4.937564373016357 27.93365859985352 -4.937564373016357 L 27.93365859985352 1.838178157806396 C 27.93365859985352 1.838178157806396 21.51336860656738 3.552406311035156 16.31028747558594 2.978092670440674 C 11.10718727111816 2.403778553009033 11.19887161254883 0.9658212661743164 7.121301651000977 0.680849552154541 C 3.043722152709961 0.3958635330200195 1.9073486328125e-06 1.838178157806396 0 1.838178157806396 L 0 -5.710107326507568 C 0 -5.710107326507568 1.835689544677734 -6.637980461120605 4.921350479125977 -6.637980461120605 Z" stroke="none" fill="#fff"/>
  </g>
  <path id="__TEMP__SVG__" d="M20.76,4.5a7.091,7.091,0,0,0-5.4,2.531A7.091,7.091,0,0,0,9.97,4.5a6.52,6.52,0,0,0-6.595,6.635c0,4.583,4.075,8.26,10.249,13.933l1.74,1.567,1.74-1.567c6.174-5.672,10.249-9.35,10.249-13.933A6.52,6.52,0,0,0,20.76,4.5ZM16.1,23.482l-.242.225-.5.449-.5-.449-.242-.225A73.211,73.211,0,0,1,7.554,16.45c-1.614-2-2.329-3.637-2.329-5.315A4.8,4.8,0,0,1,6.591,7.716,4.69,4.69,0,0,1,9.969,6.345a5.289,5.289,0,0,1,3.983,1.873L15.365,9.9l1.413-1.677a5.267,5.267,0,0,1,3.983-1.873,4.715,4.715,0,0,1,3.383,1.372,4.8,4.8,0,0,1,1.366,3.419c0,1.672-.721,3.314-2.329,5.315A73.454,73.454,0,0,1,16.1,23.482Z" transform="translate(-1.66 -4.5)" fill="#fff"/>
</svg>
