<svg xmlns="http://www.w3.org/2000/svg" width="29.903" height="22.425" viewBox="0 0 29.903 22.425">
  <path id="gun" d="M28.032,3.738a3.58,3.58,0,0,1-.555-.058L26.1,5.052a3.628,3.628,0,0,0,1.927.555.388.388,0,0,0,.087-.015l.058-.015L29.9,21.49a.876.876,0,0,1-.2.657.766.766,0,0,1-.614.278H23.564a.946.946,0,0,1-.672-.278.986.986,0,0,1-.321-.656l-.7-6.54H17.753a4.315,4.315,0,0,1-3.358-1.46,5.989,5.989,0,0,1-1.314-4.146H2.8a.948.948,0,0,1-.934-.935V7.475H.934A.9.9,0,0,1,.278,7.2.9.9,0,0,1,0,6.54V2.8a.9.9,0,0,1,.278-.657.9.9,0,0,1,.657-.278h.934V.934A.9.9,0,0,1,2.147.278a.916.916,0,0,1,1.314,0,.9.9,0,0,1,.278.657v.934H24.295A3.628,3.628,0,0,0,24.849,3.8l1.635-1.664a.877.877,0,0,1,.934-.2,4.246,4.246,0,0,1,.614-.058,2.883,2.883,0,0,1,1.329.278q.54.278.54.657t-.54.657A2.88,2.88,0,0,1,28.032,3.738ZM21.258,9.344h-.7a4.593,4.593,0,0,1-1.869,3.709V9.344H15.125a2.642,2.642,0,0,0-.175.934,2.79,2.79,0,0,0,2.8,2.8h3.912Z" fill="#fff"/>
</svg>
